<svg xmlns="http://www.w3.org/2000/svg" width="180" height="280" viewBox="0 0 180 280"><rect width="100%" height="100%" fill="#DDDDDD"/><path fill="#999999" d="M48.435 128.255h3.08v18.8h-1.79q-.42 0-.7-.14-.28-.13-.54-.46l-9.81-12.53q.07.86.07 1.59v11.54h-3.08v-18.8h1.84q.22 0 .38.02t.29.08q.12.06.24.17.11.11.26.29l9.85 12.58q-.04-.45-.06-.89-.03-.44-.03-.82zm12.66 5.25q1.48 0 2.7.48 1.21.49 2.08 1.37.86.88 1.33 2.16.47 1.27.47 2.84 0 1.59-.47 2.86-.47 1.28-1.33 2.18-.87.89-2.08 1.37-1.22.49-2.7.49-1.49 0-2.72-.49-1.22-.48-2.08-1.37-.87-.9-1.34-2.18-.48-1.27-.48-2.86 0-1.57.48-2.84.47-1.28 1.34-2.16.86-.88 2.08-1.37 1.23-.48 2.72-.48m0 11.27q1.67 0 2.46-1.11.8-1.12.8-3.28t-.8-3.29q-.79-1.13-2.46-1.13-1.69 0-2.5 1.14t-.81 3.28q0 2.15.81 3.27t2.5 1.12m19.37-16.52v18.8h-3.51v-18.8zm6.9 18.8h-3.21v-13.34h1.97q.62 0 .82.59l.2.98q.35-.39.74-.71.38-.33.82-.56.43-.23.93-.37t1.1-.14q1.26 0 2.07.69.82.68 1.22 1.81.31-.66.78-1.14.47-.47 1.03-.77t1.19-.44q.63-.15 1.26-.15 1.11 0 1.97.34t1.44.99q.59.65.89 1.59.31.93.31 2.14v8.49h-3.21v-8.49q0-1.27-.56-1.92-.56-.64-1.64-.64-.5 0-.92.17t-.74.49q-.32.31-.5.8-.18.48-.18 1.1v8.49h-3.23v-8.49q0-1.34-.54-1.95-.53-.61-1.57-.61-.71 0-1.31.34-.61.35-1.13.95zm25.61-3.45v-2.24q-1.39.06-2.34.24-.94.17-1.52.44-.57.28-.82.64-.24.37-.24.79 0 .85.5 1.21.5.37 1.3.37.99 0 1.71-.36.73-.36 1.41-1.09m-6.78-7-.57-1.03q2.3-2.11 5.53-2.11 1.17 0 2.1.39.92.38 1.56 1.06.63.69.97 1.64.33.94.33 2.08v8.42h-1.46q-.45 0-.7-.14-.25-.13-.39-.55l-.29-.96q-.5.45-.98.8-.49.34-1.01.58-.52.23-1.11.35-.59.13-1.3.13-.85 0-1.56-.23-.72-.23-1.24-.68-.52-.46-.8-1.13-.29-.68-.29-1.58 0-.5.17-1t.55-.96q.38-.45 1-.86.61-.4 1.5-.7t2.07-.49 2.7-.22v-.78q0-1.34-.57-1.99-.57-.64-1.65-.64-.78 0-1.29.18-.52.18-.91.41t-.7.41q-.32.18-.71.18-.34 0-.57-.17-.24-.18-.38-.41m17.81 3.46q.6 0 1.04-.17.44-.16.73-.45.3-.28.44-.68.15-.41.15-.89 0-.99-.59-1.56-.59-.58-1.77-.58t-1.78.58q-.59.57-.59 1.56 0 .47.15.87.15.41.44.7.3.29.74.45.45.17 1.04.17m3.63 7.59q0-.39-.24-.64-.23-.25-.64-.38-.4-.14-.94-.2-.54-.07-1.14-.1l-1.25-.06q-.64-.03-1.25-.1-.54.29-.87.7-.33.4-.33.93 0 .36.17.66.18.31.56.53.39.22 1 .34.61.13 1.49.13.9 0 1.55-.14t1.07-.38q.43-.24.62-.57.2-.33.2-.72m-.64-13.48h3.83v1.19q0 .57-.69.7l-1.19.23q.27.68.27 1.5 0 .99-.4 1.79-.39.8-1.09 1.36-.71.56-1.66.86-.96.31-2.06.31-.39 0-.76-.04-.36-.04-.71-.1-.62.37-.62.84 0 .4.37.59t.98.27 1.39.1 1.6.08q.82.07 1.6.23t1.39.51.98.96q.37.6.37 1.55 0 .89-.44 1.72-.43.83-1.26 1.48-.82.65-2.03 1.05-1.2.39-2.73.39-1.51 0-2.63-.29t-1.86-.78-1.1-1.12q-.37-.64-.37-1.33 0-.94.57-1.57t1.55-1q-.53-.28-.84-.73-.31-.46-.31-1.2 0-.3.11-.62.11-.31.32-.63.22-.31.54-.59.33-.28.77-.5-1.02-.54-1.59-1.45-.58-.91-.58-2.14 0-.98.39-1.78.4-.8 1.11-1.37.71-.56 1.68-.86.96-.3 2.11-.3.86 0 1.61.17.75.18 1.38.52m8.4 4.68h6.05q0-.63-.17-1.18-.18-.55-.53-.97-.35-.41-.89-.65-.54-.25-1.25-.25-1.39 0-2.19.8-.8.79-1.02 2.25m8.19 1.93h-8.26q.08 1.03.37 1.78.28.75.75 1.23.47.49 1.11.73t1.42.24 1.35-.18.99-.4.74-.41q.32-.18.62-.18.4 0 .59.3l.93 1.17q-.54.62-1.2 1.05-.66.42-1.38.67-.72.26-1.47.36-.75.11-1.45.11-1.39 0-2.59-.47-1.19-.46-2.08-1.36-.88-.91-1.39-2.24t-.51-3.09q0-1.36.45-2.56.44-1.21 1.26-2.1.83-.89 2.02-1.41t2.68-.52q1.26 0 2.33.41 1.07.4 1.83 1.17.77.78 1.2 1.9.44 1.13.44 2.57 0 .73-.16.98-.15.25-.59.25"/></svg>